<?xml version="1.0" standalone="no"?>
<!DOCTYPE svg PUBLIC "-//W3C//DTD SVG 20010904//EN"
 "http://www.w3.org/TR/2001/REC-SVG-20010904/DTD/svg10.dtd">
<svg version="1.0" xmlns="http://www.w3.org/2000/svg"
 width="397.000000pt" height="397.000000pt" viewBox="0 0 397.000000 397.000000"
 preserveAspectRatio="xMidYMid meet">
<metadata>
Created by potrace 1.11, written by Peter Selinger 2001-2013
</metadata>
<g transform="translate(0.000000,397.000000) scale(0.100000,-0.100000)"
fill="#000000" stroke="none">
<path d="M1370 3941 c0 -16 8 -37 18 -47 9 -10 17 -27 17 -38 0 -17 6 -21 30
-19 16 1 33 9 37 18 5 8 22 15 38 15 16 0 53 5 82 12 29 6 59 11 66 9 8 -1 12
12 12 39 l0 40 -150 0 -150 0 0 -29z"/>
<path d="M2020 3958 c1 -39 35 -41 252 -10 31 5 66 8 77 7 12 -1 21 2 21 7 0
4 -79 8 -175 8 -133 0 -175 -3 -175 -12z"/>
<path d="M2871 3959 c-14 -5 -81 -14 -150 -19 -68 -6 -132 -12 -141 -15 -8 -3
-66 -9 -127 -14 -88 -7 -118 -13 -141 -30 -48 -34 -79 -41 -236 -56 -83 -8
-155 -15 -159 -15 -5 0 -6 -4 -3 -8 2 -4 -11 -6 -30 -4 -19 2 -47 -1 -62 -7
-15 -6 -117 -20 -227 -31 -110 -11 -218 -25 -240 -30 -22 -5 -116 -14 -210
-20 -93 -6 -228 -20 -300 -30 -71 -11 -173 -25 -225 -30 -114 -13 -223 -33
-216 -41 3 -2 -7 -5 -22 -4 -21 0 -28 -5 -30 -23 -2 -13 3 -31 10 -40 18 -21
22 -120 6 -139 -12 -15 -14 -54 -7 -215 5 -110 4 -119 -15 -137 -20 -19 -22
-19 -44 -1 -17 15 -42 87 -42 125 0 2 -46 2 -102 0 -89 -2 -107 0 -130 17
l-28 19 0 -125 0 -126 40 -6 c22 -4 40 -9 40 -12 0 -11 -45 -42 -62 -42 -17 0
-18 -14 -18 -275 0 -213 3 -275 13 -275 37 1 190 32 237 50 66 23 109 25 116
5 4 -8 12 -15 20 -15 7 0 11 -6 8 -14 -4 -11 0 -13 15 -9 11 3 19 9 16 13 -3
4 9 10 25 14 17 3 30 12 30 20 0 16 10 20 90 35 85 16 177 37 270 62 47 12
116 23 155 23 l70 1 0 -29 c0 -27 -4 -31 -50 -42 -27 -6 -99 -19 -159 -28
-121 -19 -257 -61 -287 -89 -13 -12 -19 -32 -20 -65 -1 -26 -4 -92 -8 -147 -4
-55 -4 -107 0 -115 4 -8 12 -28 19 -45 6 -16 22 -42 35 -57 21 -24 32 -28 82
-29 42 0 52 -3 38 -9 -25 -11 -23 -11 110 -11 100 0 185 12 272 39 24 8 36 7
50 -4 10 -7 14 -14 8 -14 -5 -1 -2 -5 8 -9 12 -4 -59 -24 -195 -55 -225 -50
-320 -75 -328 -87 -3 -3 -23 -9 -45 -11 -39 -5 -157 -40 -245 -73 -25 -9 -81
-19 -125 -22 -50 -3 -97 -12 -125 -25 -25 -12 -56 -24 -70 -28 l-25 -6 -3
-247 c-1 -136 1 -247 5 -247 27 0 366 78 358 82 -6 2 -4 3 3 1 8 -2 51 6 97
17 53 13 109 19 152 18 37 -2 83 1 100 5 20 5 33 5 33 -1 0 -5 -21 -15 -47
-21 -77 -20 -100 -42 -107 -103 -9 -88 -6 -129 15 -216 16 -63 19 -93 13 -130
-4 -26 -7 -54 -6 -64 1 -9 -6 -19 -14 -22 -12 -5 -15 -2 -10 10 4 10 -1 22
-11 29 -15 11 -18 36 -21 176 -3 138 -7 169 -23 195 -35 58 -82 66 -194 33
-38 -11 -88 -24 -110 -29 -22 -5 -65 -17 -95 -28 -31 -11 -74 -23 -98 -27
l-42 -7 0 -264 0 -264 33 6 c17 3 52 12 77 20 25 7 85 21 135 29 175 31 310
66 349 90 22 13 43 22 47 20 4 -3 28 10 53 28 162 115 242 172 246 177 9 10
45 30 110 63 36 17 67 34 70 37 9 9 130 70 139 70 6 0 25 14 43 31 18 17 42
35 52 41 16 9 18 8 12 -8 -6 -15 -5 -16 5 -7 10 10 9 16 -2 29 -13 16 -12 16
7 6 18 -9 24 -8 35 6 13 15 12 16 -3 3 -10 -7 -18 -9 -18 -4 0 5 12 15 26 21
14 7 23 8 19 2 -3 -6 1 -7 9 -4 9 3 16 12 16 19 0 8 5 17 12 21 7 5 8 2 3 -7
-5 -8 3 -4 17 9 28 25 76 29 84 7 4 -8 10 -13 14 -10 11 7 70 -50 70 -67 0
-32 81 -86 160 -108 95 -27 124 -29 143 -13 22 21 22 48 -1 65 -16 12 -30 35
-32 56 -1 4 -8 17 -16 30 -8 13 -14 37 -12 55 4 28 5 30 13 12 15 -34 62 -99
89 -124 14 -14 26 -29 26 -35 0 -6 25 -44 55 -84 31 -41 55 -84 55 -97 0 -16
8 -26 22 -31 26 -8 78 -57 78 -74 0 -8 9 -10 25 -6 21 5 25 2 30 -21 14 -67
27 -103 36 -103 17 0 5 -23 -13 -26 -8 -1 -29 -5 -45 -8 -24 -6 -34 -1 -58 25
-17 17 -55 43 -85 58 -75 37 -121 64 -138 78 -17 17 -27 16 -41 -1 -9 -11 3
-29 61 -88 40 -41 83 -78 95 -82 12 -4 30 -20 41 -37 22 -35 135 -137 240
-215 39 -31 72 -60 72 -65 0 -6 5 -7 12 -3 7 4 8 3 4 -4 -4 -6 5 -19 19 -28
14 -9 25 -24 25 -33 0 -9 23 -41 50 -71 28 -30 62 -70 77 -87 l25 -33 349 0
c326 0 349 1 349 18 0 9 -7 57 -15 107 -8 50 -15 110 -15 135 0 49 -18 108
-39 134 -10 12 -11 19 -2 30 22 27 25 109 5 147 -14 24 -19 56 -20 114 -1 44
-5 113 -9 153 -8 79 7 104 19 30 4 -24 16 -81 27 -128 11 -47 26 -139 34 -205
7 -66 20 -149 28 -185 27 -117 37 -185 37 -252 0 -99 -1 -98 91 -98 l79 0 1
48 c1 26 3 36 6 22 9 -60 14 -70 33 -70 36 0 27 78 -41 359 -22 91 -43 170
-47 175 -5 6 -25 52 -46 101 -21 50 -53 122 -71 160 -59 125 -79 205 -52 205
7 0 8 3 2 8 -5 4 -11 15 -11 25 -2 17 0 17 15 3 10 -9 22 -16 27 -16 5 0 1 7
-10 15 -24 18 -19 51 27 181 62 176 72 244 57 419 -7 82 -12 177 -11 211 2 81
31 184 55 198 37 21 74 58 80 79 6 23 97 94 181 141 28 16 75 54 105 85 l54
56 -42 8 c-31 6 -60 3 -115 -12 -80 -23 -107 -26 -107 -12 0 9 51 21 114 26
21 2 42 8 46 14 3 6 34 14 68 17 l62 7 0 145 c0 144 0 145 -20 127 -16 -15
-20 -31 -20 -90 0 -57 -4 -75 -18 -88 -33 -30 -72 -14 -70 28 1 52 -13 300
-19 323 -3 15 -15 35 -25 47 -19 20 -19 20 1 23 12 2 21 10 21 17 0 22 20 29
87 27 l63 -2 0 480 0 480 -538 -1 c-323 0 -547 -4 -561 -10z m546 -146 c23
-50 23 -50 33 -33 5 8 12 11 16 7 4 -4 -2 -15 -14 -25 -12 -11 -19 -22 -15
-26 3 -3 1 -6 -5 -6 -7 0 -12 -7 -12 -16 0 -11 -8 -14 -27 -12 -27 3 -28 5
-28 63 0 91 23 112 52 48z m428 10 c33 -39 45 -151 19 -182 -42 -49 -83 -16
-77 61 5 58 22 148 29 148 3 0 16 -12 29 -27z m-987 -25 c3 -35 1 -38 -22 -38
-13 0 -26 5 -28 12 -2 6 -10 8 -16 4 -7 -4 -10 -16 -7 -26 16 -50 -112 -83
-155 -40 -11 11 -24 20 -29 20 -5 0 -17 15 -26 32 -14 29 -14 34 0 44 19 14
132 26 172 18 17 -3 39 -1 50 5 35 21 58 9 61 -31z m467 -327 c18 -7 17 -10
-13 -25 -22 -11 -44 -15 -63 -11 -37 8 -37 23 -1 31 15 3 32 7 37 9 14 5 18 4
40 -4z m-2126 -302 c26 -9 30 -15 25 -33 -8 -27 -30 -52 -47 -54 -13 -1 -107
-16 -237 -38 -47 -8 -110 -14 -140 -14 -53 -1 -70 -4 -191 -31 -68 -15 -88 -9
-82 24 4 20 14 27 46 35 54 13 172 41 217 52 19 4 55 12 80 18 25 6 83 16 130
23 78 10 164 25 166 28 1 0 15 -4 33 -10z m1228 -220 c13 -35 23 -71 23 -80 0
-9 7 -19 15 -23 12 -4 15 3 15 29 0 36 17 56 30 34 5 -7 12 -36 15 -64 4 -27
18 -82 31 -122 27 -81 33 -221 12 -270 -22 -50 -89 -121 -129 -137 -21 -9 -39
-20 -39 -24 0 -11 -66 -42 -90 -42 -11 0 -29 5 -39 12 -14 9 -36 9 -90 -1
-103 -16 -107 -11 -65 85 14 32 36 106 49 165 36 160 71 275 111 359 34 73 99
153 118 147 5 -2 20 -32 33 -68z m1074 8 c-10 -9 -11 -8 -5 6 3 10 9 15 12 12
3 -3 0 -11 -7 -18z m171 -17 c-33 -34 -72 -40 -72 -12 0 22 33 40 73 41 l27 1
-28 -30z m103 11 c6 -11 -33 -36 -42 -27 -3 3 -3 12 0 21 7 17 33 20 42 6z
m-1938 -288 c-2 -16 -4 -5 -4 22 0 28 2 40 4 28 2 -13 2 -35 0 -50z m1222 53
c6 -7 12 -37 14 -67 2 -51 1 -53 -28 -60 -16 -4 -44 -13 -62 -20 -18 -7 -35
-10 -39 -7 -3 4 4 36 16 72 27 82 70 118 99 82z m-205 -71 c8 -32 -42 -134
-81 -165 -21 -16 -27 -29 -25 -50 2 -16 -2 -38 -8 -49 -6 -12 -8 -21 -4 -21
17 0 103 63 98 71 -3 5 -2 8 3 7 14 -5 102 56 96 66 -3 5 -1 6 4 3 6 -4 16 0
23 8 21 25 85 40 117 26 38 -16 75 -72 71 -108 -2 -23 -7 -27 -28 -25 -14 2
-55 4 -91 4 -58 1 -77 -4 -142 -37 -58 -29 -78 -45 -91 -71 -24 -52 -20 -59
19 -30 32 25 35 26 35 7 0 -26 58 -74 79 -65 9 3 23 6 31 7 33 0 49 27 46 78
-2 48 -1 50 23 47 33 -4 38 -34 15 -83 -9 -20 -15 -37 -13 -39 2 -2 26 -6 52
-9 l49 -5 30 49 c16 27 33 50 36 50 4 1 22 2 41 4 41 3 49 -13 86 -173 44
-191 54 -260 48 -312 -6 -48 -4 -51 31 -83 40 -37 46 -67 31 -177 -14 -113
-80 -288 -140 -375 -27 -39 -48 -102 -39 -116 4 -7 3 -9 -4 -5 -7 4 -15 -7
-20 -27 -13 -45 -53 -107 -99 -151 -79 -76 -289 -153 -379 -139 -85 13 -274
73 -359 114 -50 24 -92 46 -95 49 -3 3 -41 30 -85 59 -179 122 -238 187 -265
298 -13 49 -12 54 10 97 22 41 23 46 8 63 -29 33 -66 119 -108 249 -23 71 -45
137 -51 146 -16 31 -10 68 15 91 27 26 68 34 60 12 -6 -16 11 -14 44 3 18 11
22 10 22 -2 0 -19 50 -46 83 -46 14 0 30 7 37 15 7 8 19 15 27 15 8 0 11 5 8
10 -4 6 6 10 22 10 25 0 83 29 61 30 -5 0 1 9 13 21 14 14 20 31 18 54 -2 19
-1 36 2 39 3 4 28 2 55 -3 27 -5 51 -8 53 -6 2 2 -22 16 -53 32 l-56 27 22 23
c11 12 42 29 69 38 26 9 53 22 59 30 6 8 35 22 63 31 29 9 83 37 121 61 68 44
176 138 176 154 0 13 103 199 111 199 4 0 10 -11 13 -25z m-937 -27 c-3 -8 -6
-5 -6 6 -1 11 2 17 5 13 3 -3 4 -12 1 -19z m238 -421 c7 -6 6 -11 -2 -14 -21
-7 -15 -31 9 -39 20 -6 19 -7 -11 -20 -19 -8 -42 -14 -53 -14 -10 0 -44 -12
-74 -27 -30 -14 -57 -24 -60 -20 -8 8 32 72 74 119 30 33 37 36 70 31 20 -3
42 -10 47 -16z m546 -1486 c35 -6 90 -13 122 -17 l58 -6 -7 -31 c-9 -35 -8
-48 2 -124 3 -29 10 -53 14 -53 4 0 10 -10 13 -21 4 -15 11 -20 25 -17 32 9
55 -41 43 -92 -5 -23 -12 -44 -16 -48 -3 -4 -32 21 -63 55 -31 33 -70 68 -87
76 -16 9 -65 54 -108 101 -44 46 -104 102 -135 124 -80 56 -113 88 -106 105 4
12 20 10 93 -14 48 -15 116 -33 152 -38z m-100 -228 c40 -26 89 -59 110 -73
26 -16 37 -30 34 -41 -4 -10 15 -33 55 -68 33 -29 60 -58 60 -66 0 -20 -151
65 -160 91 -9 24 -36 38 -52 27 -6 -3 -8 -1 -4 5 3 6 -11 25 -32 42 -22 17
-45 42 -52 56 -8 14 -30 34 -49 46 -36 22 -51 36 -51 51 0 13 67 -20 141 -70z
m689 33 c0 -8 -4 -18 -10 -21 -5 -3 -10 3 -10 14 0 12 5 21 10 21 6 0 10 -6
10 -14z m-223 -309 c-6 -19 -23 -18 -47 1 -22 18 -22 19 -4 36 17 18 18 18 36
-4 10 -13 17 -28 15 -33z m-127 -33 c0 -2 -9 0 -20 6 -11 6 -20 13 -20 16 0 2
9 0 20 -6 11 -6 20 -13 20 -16z m610 -89 c0 -25 -4 -45 -10 -45 -5 0 -10 20
-10 45 0 25 5 45 10 45 6 0 10 -20 10 -45z"/>
<path d="M2909 1652 c-24 -26 -59 -65 -77 -86 l-33 -39 -77 7 c-42 3 -103 9
-134 12 -37 4 -58 3 -58 -4 0 -5 7 -13 15 -16 35 -13 219 -37 242 -31 13 3 42
23 63 45 43 43 115 148 108 156 -3 2 -25 -17 -49 -44z"/>
<path d="M3103 1500 c-29 -17 -132 -63 -298 -133 -88 -36 -320 -90 -362 -84
-47 8 -39 -12 13 -30 21 -7 53 -20 71 -28 18 -9 60 -15 102 -15 65 0 72 2 80
23 14 37 42 54 124 78 67 19 83 21 112 11 24 -9 40 -10 61 -2 32 13 84 58 84
74 0 6 13 37 29 69 16 31 27 57 23 57 -4 0 -22 -9 -39 -20z"/>
<path d="M930 3850 c-30 -10 -66 -21 -80 -24 -14 -3 -32 -19 -42 -35 -15 -28
-15 -30 0 -37 44 -19 262 20 262 47 0 5 -4 9 -9 9 -5 0 -11 14 -14 30 -8 36
-31 38 -117 10z"/>
<path d="M670 3830 c-14 -11 -31 -20 -37 -20 -7 0 -13 -4 -13 -9 0 -14 -65
-41 -102 -41 -34 -1 -73 -22 -61 -33 18 -19 259 -2 267 19 5 13 -11 84 -22 96
-4 4 -18 -2 -32 -12z"/>
<path d="M32 3687 c-18 -11 -32 -23 -32 -27 0 -11 120 -4 182 11 26 6 52 17
58 24 19 22 -168 15 -208 -8z"/>
<path d="M100 3534 c-25 -7 -57 -16 -72 -19 -28 -5 -28 -7 -28 -81 0 -68 2
-75 17 -70 9 4 36 10 60 13 44 6 55 -4 29 -26 -19 -16 -14 -38 10 -56 28 -19
65 0 79 40 5 17 14 33 20 37 5 4 6 10 2 14 -4 4 0 18 8 31 14 21 14 26 -5 63
-11 21 -20 46 -20 55 0 19 -37 19 -100 -1z"/>
<path d="M3910 2941 c-13 -32 -7 -66 18 -93 31 -36 42 -22 42 52 0 67 -1 70
-24 70 -17 0 -27 -9 -36 -29z"/>
<path d="M360 2287 c0 -5 -8 -16 -17 -23 -15 -10 -16 -15 -5 -26 10 -10 14
-10 21 0 6 9 10 9 23 -1 15 -10 15 -23 7 -102 -12 -110 -13 -150 -4 -194 6
-24 4 -32 -4 -27 -6 4 -11 1 -11 -6 0 -24 -53 -118 -69 -122 -9 -2 -68 -7
-133 -11 -110 -7 -116 -6 -122 13 -4 11 -16 22 -26 25 -18 5 -20 0 -20 -50 l0
-55 33 5 c17 3 68 11 112 17 44 7 87 16 96 20 9 5 42 11 75 15 70 9 98 21 90
41 -6 17 15 19 31 3 24 -24 30 4 26 123 -3 79 -12 150 -25 198 -11 41 -22 94
-25 117 -4 34 -9 42 -29 46 -13 2 -24 0 -24 -6z m49 -421 c9 -10 8 -15 -4 -20
-10 -4 -15 1 -15 14 0 24 4 25 19 6z"/>
<path d="M0 2129 c0 -90 11 -100 48 -44 12 19 27 35 33 35 5 0 7 5 4 10 -3 6
1 10 9 10 19 0 21 24 4 37 -7 6 -32 15 -55 20 l-43 11 0 -79z"/>
<path d="M1685 1000 c-5 -8 39 -278 51 -305 2 -5 12 -21 21 -35 12 -15 13 -21
4 -16 -21 13 18 -49 54 -87 41 -43 68 -84 89 -137 45 -110 117 -250 136 -263
11 -7 18 -17 15 -20 -3 -4 -2 -5 1 -2 7 5 54 -45 54 -57 0 -5 5 -8 11 -8 6 0
9 6 6 14 -4 10 0 12 14 9 10 -3 19 -1 19 5 0 16 -52 53 -67 48 -7 -3 -15 0
-19 6 -5 7 -2 8 7 4 10 -6 10 -4 -1 6 -8 7 -16 18 -17 23 -11 52 -62 178 -85
207 -15 20 -28 42 -28 48 0 7 -24 49 -53 93 -30 45 -57 89 -60 97 -4 8 -14 25
-23 38 -9 12 -12 22 -6 22 10 0 59 -56 127 -147 21 -29 43 -49 48 -46 6 3 7 2
4 -4 -3 -5 9 -27 28 -48 19 -21 35 -40 35 -44 0 -3 11 -27 25 -54 14 -26 23
-47 19 -47 -4 0 -1 -7 6 -15 6 -8 9 -23 5 -36 -8 -24 23 -102 37 -93 5 3 7 1
6 -4 -3 -11 49 -52 99 -78 37 -20 48 -41 32 -60 -10 -12 16 -14 160 -14 94 0
171 3 171 6 0 11 -59 90 -85 114 -15 14 -38 42 -51 63 -13 20 -30 37 -37 38
-6 0 -29 21 -51 47 -35 43 -124 123 -237 212 -46 37 -241 220 -247 232 -4 8
-91 130 -120 168 -11 14 -23 40 -26 57 -4 18 -13 31 -19 30 -7 -1 -11 3 -10
10 4 16 -34 37 -42 23z"/>
<path d="M1850 892 c0 -7 59 -34 69 -31 2 0 8 -5 12 -13 7 -10 9 -9 9 3 0 9
-15 24 -34 33 -37 18 -56 20 -56 8z"/>
<path d="M1893 805 c4 -9 7 -19 7 -21 0 -2 9 -4 21 -4 23 0 17 15 -13 31 -18
10 -20 9 -15 -6z"/>
<path d="M365 489 c-45 -14 -340 -79 -362 -79 -2 0 -3 -92 -3 -205 l0 -205
130 0 c107 0 130 3 130 15 0 8 13 36 29 63 16 27 32 60 36 73 9 30 50 106 121
225 30 50 54 98 54 106 0 33 -48 36 -135 7z m-102 -414 c-3 -9 -8 -14 -10 -11
-3 3 -2 9 2 15 9 16 15 13 8 -4z"/>
</g>
</svg>
